<mxfile host="app.diagrams.net" agent="Mozilla/5.0 (Windows NT 10.0; Win64; x64) AppleWebKit/537.36 (KHTML, like Gecko) Chrome/138.0.0.0 Safari/537.36" version="27.2.0">
  <diagram name="Seite-1" id="whoQCh3kFR6irEoWR5Bh">
    <mxGraphModel dx="570" dy="297" grid="1" gridSize="10" guides="1" tooltips="1" connect="1" arrows="1" fold="1" page="1" pageScale="1" pageWidth="827" pageHeight="1169" math="1" shadow="0">
      <root>
        <mxCell id="0" />
        <mxCell id="1" parent="0" />
        <mxCell id="PXDZ9CeheyaB0Kq25Mf--57" style="edgeStyle=none;shape=connector;rounded=0;orthogonalLoop=1;jettySize=auto;html=1;entryX=0.086;entryY=0.252;entryDx=0;entryDy=0;strokeColor=default;align=center;verticalAlign=middle;fontFamily=Helvetica;fontSize=11;fontColor=default;labelBackgroundColor=default;endArrow=classic;entryPerimeter=0;exitX=0.944;exitY=0.253;exitDx=0;exitDy=0;exitPerimeter=0;" edge="1" parent="1" source="m-nLomvfz4ySYYSoCfbE-1" target="PXDZ9CeheyaB0Kq25Mf--35">
          <mxGeometry relative="1" as="geometry" />
        </mxCell>
        <mxCell id="PXDZ9CeheyaB0Kq25Mf--61" style="edgeStyle=none;shape=connector;rounded=0;orthogonalLoop=1;jettySize=auto;html=1;exitX=1;exitY=1;exitDx=0;exitDy=0;strokeColor=default;align=center;verticalAlign=middle;fontFamily=Helvetica;fontSize=11;fontColor=default;labelBackgroundColor=default;endArrow=classic;entryX=0;entryY=1;entryDx=0;entryDy=0;" edge="1" parent="1" source="m-nLomvfz4ySYYSoCfbE-1" target="PXDZ9CeheyaB0Kq25Mf--36">
          <mxGeometry relative="1" as="geometry">
            <mxPoint x="350" y="210" as="targetPoint" />
          </mxGeometry>
        </mxCell>
        <mxCell id="PXDZ9CeheyaB0Kq25Mf--71" style="edgeStyle=none;shape=connector;rounded=0;orthogonalLoop=1;jettySize=auto;html=1;exitX=1;exitY=1;exitDx=0;exitDy=0;entryX=0.948;entryY=0.917;entryDx=0;entryDy=0;strokeColor=default;align=center;verticalAlign=middle;fontFamily=Helvetica;fontSize=11;fontColor=default;labelBackgroundColor=default;endArrow=classic;entryPerimeter=0;" edge="1" parent="1" source="m-nLomvfz4ySYYSoCfbE-1" target="PXDZ9CeheyaB0Kq25Mf--38">
          <mxGeometry relative="1" as="geometry" />
        </mxCell>
        <mxCell id="m-nLomvfz4ySYYSoCfbE-1" value="" style="ellipse;whiteSpace=wrap;html=1;aspect=fixed;strokeColor=default;align=center;verticalAlign=middle;fontFamily=Helvetica;fontSize=12;fontColor=default;fillColor=light-dark(#A5A5A5,#FF8AC5);" parent="1" vertex="1">
          <mxGeometry x="280" y="143" width="30" height="30" as="geometry" />
        </mxCell>
        <mxCell id="PXDZ9CeheyaB0Kq25Mf--62" style="edgeStyle=none;shape=connector;rounded=0;orthogonalLoop=1;jettySize=auto;html=1;exitX=0.295;exitY=0.033;exitDx=0;exitDy=0;entryX=0.071;entryY=0.736;entryDx=0;entryDy=0;strokeColor=default;align=center;verticalAlign=middle;fontFamily=Helvetica;fontSize=11;fontColor=default;labelBackgroundColor=default;endArrow=classic;entryPerimeter=0;exitPerimeter=0;" edge="1" parent="1" source="m-nLomvfz4ySYYSoCfbE-4" target="PXDZ9CeheyaB0Kq25Mf--39">
          <mxGeometry relative="1" as="geometry" />
        </mxCell>
        <mxCell id="PXDZ9CeheyaB0Kq25Mf--63" style="edgeStyle=none;shape=connector;rounded=0;orthogonalLoop=1;jettySize=auto;html=1;exitX=1;exitY=0;exitDx=0;exitDy=0;strokeColor=default;align=center;verticalAlign=middle;fontFamily=Helvetica;fontSize=11;fontColor=default;labelBackgroundColor=default;endArrow=classic;entryX=0.01;entryY=0.368;entryDx=0;entryDy=0;entryPerimeter=0;" edge="1" parent="1" source="m-nLomvfz4ySYYSoCfbE-4" target="PXDZ9CeheyaB0Kq25Mf--37">
          <mxGeometry relative="1" as="geometry" />
        </mxCell>
        <mxCell id="PXDZ9CeheyaB0Kq25Mf--68" style="edgeStyle=none;shape=connector;rounded=0;orthogonalLoop=1;jettySize=auto;html=1;exitX=0.534;exitY=-0.003;exitDx=0;exitDy=0;strokeColor=default;align=center;verticalAlign=middle;fontFamily=Helvetica;fontSize=11;fontColor=default;labelBackgroundColor=default;endArrow=classic;entryX=0.568;entryY=1.005;entryDx=0;entryDy=0;entryPerimeter=0;exitPerimeter=0;" edge="1" parent="1" source="m-nLomvfz4ySYYSoCfbE-4" target="PXDZ9CeheyaB0Kq25Mf--36">
          <mxGeometry relative="1" as="geometry" />
        </mxCell>
        <mxCell id="m-nLomvfz4ySYYSoCfbE-4" value="" style="ellipse;whiteSpace=wrap;html=1;aspect=fixed;strokeColor=default;align=center;verticalAlign=middle;fontFamily=Helvetica;fontSize=12;fontColor=default;fillColor=light-dark(#A5A5A5,#FF8AC5);direction=south;" parent="1" vertex="1">
          <mxGeometry x="280" y="223" width="30" height="30" as="geometry" />
        </mxCell>
        <mxCell id="PXDZ9CeheyaB0Kq25Mf--65" style="edgeStyle=none;shape=connector;rounded=0;orthogonalLoop=1;jettySize=auto;html=1;exitX=1;exitY=0.5;exitDx=0;exitDy=0;entryX=0;entryY=0.5;entryDx=0;entryDy=0;strokeColor=default;align=center;verticalAlign=middle;fontFamily=Helvetica;fontSize=11;fontColor=default;labelBackgroundColor=default;endArrow=classic;" edge="1" parent="1" source="m-nLomvfz4ySYYSoCfbE-5" target="PXDZ9CeheyaB0Kq25Mf--37">
          <mxGeometry relative="1" as="geometry" />
        </mxCell>
        <mxCell id="PXDZ9CeheyaB0Kq25Mf--73" style="edgeStyle=none;shape=connector;rounded=0;orthogonalLoop=1;jettySize=auto;html=1;exitX=0.758;exitY=0.071;exitDx=0;exitDy=0;entryX=0.201;entryY=0.912;entryDx=0;entryDy=0;strokeColor=default;align=center;verticalAlign=middle;fontFamily=Helvetica;fontSize=11;fontColor=default;labelBackgroundColor=default;endArrow=classic;exitPerimeter=0;entryPerimeter=0;" edge="1" parent="1" source="m-nLomvfz4ySYYSoCfbE-5" target="PXDZ9CeheyaB0Kq25Mf--39">
          <mxGeometry relative="1" as="geometry" />
        </mxCell>
        <mxCell id="m-nLomvfz4ySYYSoCfbE-5" value="" style="ellipse;whiteSpace=wrap;html=1;aspect=fixed;strokeColor=default;align=center;verticalAlign=middle;fontFamily=Helvetica;fontSize=12;fontColor=default;fillColor=light-dark(#A5A5A5,#FF8AC5);" parent="1" vertex="1">
          <mxGeometry x="280" y="294" width="30" height="30" as="geometry" />
        </mxCell>
        <mxCell id="m-nLomvfz4ySYYSoCfbE-6" value="&lt;font style=&quot;font-size: 22px;&quot;&gt;$$\dots$$&lt;/font&gt;" style="text;html=1;align=center;verticalAlign=middle;whiteSpace=wrap;rounded=0;rotation=90;fillColor=none;" parent="1" vertex="1">
          <mxGeometry x="278.5" y="272" width="45" height="4" as="geometry" />
        </mxCell>
        <mxCell id="PXDZ9CeheyaB0Kq25Mf--77" style="edgeStyle=none;shape=connector;rounded=0;orthogonalLoop=1;jettySize=auto;html=1;strokeColor=default;align=center;verticalAlign=middle;fontFamily=Helvetica;fontSize=11;fontColor=default;labelBackgroundColor=default;endArrow=classic;" edge="1" parent="1" target="m-nLomvfz4ySYYSoCfbE-18">
          <mxGeometry relative="1" as="geometry">
            <mxPoint x="179.99999999999994" y="180" as="sourcePoint" />
          </mxGeometry>
        </mxCell>
        <mxCell id="m-nLomvfz4ySYYSoCfbE-18" value="" style="ellipse;whiteSpace=wrap;html=1;aspect=fixed;fillColor=#F70146;" parent="1" vertex="1">
          <mxGeometry x="201" y="165" width="30" height="30" as="geometry" />
        </mxCell>
        <mxCell id="PXDZ9CeheyaB0Kq25Mf--6" style="rounded=0;orthogonalLoop=1;jettySize=auto;html=1;exitX=1;exitY=0.608;exitDx=0;exitDy=0;exitPerimeter=0;entryX=0.5;entryY=1;entryDx=0;entryDy=0;" edge="1" parent="1" source="m-nLomvfz4ySYYSoCfbE-19" target="m-nLomvfz4ySYYSoCfbE-4">
          <mxGeometry relative="1" as="geometry">
            <mxPoint x="270" y="230" as="targetPoint" />
          </mxGeometry>
        </mxCell>
        <mxCell id="PXDZ9CeheyaB0Kq25Mf--78" style="edgeStyle=none;shape=connector;rounded=0;orthogonalLoop=1;jettySize=auto;html=1;exitX=0;exitY=0.5;exitDx=0;exitDy=0;strokeColor=default;align=center;verticalAlign=middle;fontFamily=Helvetica;fontSize=11;fontColor=default;labelBackgroundColor=default;endArrow=classic;entryX=0;entryY=0.5;entryDx=0;entryDy=0;" edge="1" parent="1" target="m-nLomvfz4ySYYSoCfbE-19">
          <mxGeometry relative="1" as="geometry">
            <mxPoint x="179.99999999999994" y="219.93650793650795" as="sourcePoint" />
          </mxGeometry>
        </mxCell>
        <mxCell id="m-nLomvfz4ySYYSoCfbE-19" value="" style="ellipse;whiteSpace=wrap;html=1;aspect=fixed;strokeColor=default;align=center;verticalAlign=middle;fontFamily=Helvetica;fontSize=12;fontColor=default;fillColor=#F70146;" parent="1" vertex="1">
          <mxGeometry x="201" y="205" width="30" height="30" as="geometry" />
        </mxCell>
        <mxCell id="PXDZ9CeheyaB0Kq25Mf--79" style="edgeStyle=none;shape=connector;rounded=0;orthogonalLoop=1;jettySize=auto;html=1;exitX=0;exitY=0.5;exitDx=0;exitDy=0;strokeColor=default;align=center;verticalAlign=middle;fontFamily=Helvetica;fontSize=11;fontColor=default;labelBackgroundColor=default;endArrow=classic;entryX=0;entryY=0.5;entryDx=0;entryDy=0;" edge="1" parent="1" target="m-nLomvfz4ySYYSoCfbE-20">
          <mxGeometry relative="1" as="geometry">
            <mxPoint x="179.99999999999994" y="289.93650793650795" as="sourcePoint" />
          </mxGeometry>
        </mxCell>
        <mxCell id="m-nLomvfz4ySYYSoCfbE-20" value="" style="ellipse;whiteSpace=wrap;html=1;aspect=fixed;strokeColor=default;align=center;verticalAlign=middle;fontFamily=Helvetica;fontSize=12;fontColor=default;fillColor=#F70146;" parent="1" vertex="1">
          <mxGeometry x="201" y="275" width="30" height="30" as="geometry" />
        </mxCell>
        <mxCell id="m-nLomvfz4ySYYSoCfbE-21" value="&lt;font style=&quot;font-size: 22px;&quot;&gt;$$\dots$$&lt;/font&gt;" style="text;html=1;align=center;verticalAlign=middle;whiteSpace=wrap;rounded=0;rotation=90;" parent="1" vertex="1">
          <mxGeometry x="198.5" y="245" width="45" height="20" as="geometry" />
        </mxCell>
        <mxCell id="m-nLomvfz4ySYYSoCfbE-22" style="edgeStyle=none;shape=connector;rounded=0;orthogonalLoop=1;jettySize=auto;html=1;entryX=0.047;entryY=0.269;entryDx=0;entryDy=0;strokeColor=default;align=center;verticalAlign=middle;fontFamily=Helvetica;fontSize=11;fontColor=default;labelBackgroundColor=default;endArrow=classic;exitX=0.882;exitY=0.181;exitDx=0;exitDy=0;exitPerimeter=0;entryPerimeter=0;" parent="1" source="m-nLomvfz4ySYYSoCfbE-18" target="m-nLomvfz4ySYYSoCfbE-1" edge="1">
          <mxGeometry relative="1" as="geometry">
            <mxPoint x="228" y="170" as="sourcePoint" />
          </mxGeometry>
        </mxCell>
        <mxCell id="m-nLomvfz4ySYYSoCfbE-27" style="edgeStyle=none;shape=connector;rounded=0;orthogonalLoop=1;jettySize=auto;html=1;exitX=0.806;exitY=0.891;exitDx=0;exitDy=0;strokeColor=default;align=center;verticalAlign=middle;fontFamily=Helvetica;fontSize=11;fontColor=default;labelBackgroundColor=default;endArrow=classic;entryX=0.062;entryY=0.235;entryDx=0;entryDy=0;entryPerimeter=0;exitPerimeter=0;" parent="1" edge="1" target="m-nLomvfz4ySYYSoCfbE-5" source="m-nLomvfz4ySYYSoCfbE-19">
          <mxGeometry relative="1" as="geometry">
            <mxPoint x="231" y="220" as="sourcePoint" />
            <mxPoint x="263" y="220" as="targetPoint" />
          </mxGeometry>
        </mxCell>
        <mxCell id="m-nLomvfz4ySYYSoCfbE-29" style="edgeStyle=none;shape=connector;rounded=0;orthogonalLoop=1;jettySize=auto;html=1;exitX=0.986;exitY=0.598;exitDx=0;exitDy=0;entryX=-0.005;entryY=0.463;entryDx=0;entryDy=0;strokeColor=default;align=center;verticalAlign=middle;fontFamily=Helvetica;fontSize=11;fontColor=default;labelBackgroundColor=default;endArrow=classic;entryPerimeter=0;exitPerimeter=0;" parent="1" edge="1" target="m-nLomvfz4ySYYSoCfbE-5" source="m-nLomvfz4ySYYSoCfbE-20">
          <mxGeometry relative="1" as="geometry">
            <mxPoint x="231" y="290.46" as="sourcePoint" />
            <mxPoint x="263" y="290.46" as="targetPoint" />
          </mxGeometry>
        </mxCell>
        <mxCell id="PXDZ9CeheyaB0Kq25Mf--1" value="$$\text{Input}$$" style="text;html=1;align=center;verticalAlign=middle;whiteSpace=wrap;rounded=0;" vertex="1" parent="1">
          <mxGeometry x="186" y="120" width="60" height="30" as="geometry" />
        </mxCell>
        <mxCell id="PXDZ9CeheyaB0Kq25Mf--60" style="edgeStyle=none;shape=connector;rounded=0;orthogonalLoop=1;jettySize=auto;html=1;exitX=1;exitY=0.5;exitDx=0;exitDy=0;entryX=0;entryY=0.5;entryDx=0;entryDy=0;strokeColor=default;align=center;verticalAlign=middle;fontFamily=Helvetica;fontSize=11;fontColor=default;labelBackgroundColor=default;endArrow=classic;" edge="1" parent="1" source="PXDZ9CeheyaB0Kq25Mf--2" target="PXDZ9CeheyaB0Kq25Mf--39">
          <mxGeometry relative="1" as="geometry" />
        </mxCell>
        <mxCell id="PXDZ9CeheyaB0Kq25Mf--2" value="" style="ellipse;whiteSpace=wrap;html=1;aspect=fixed;fillColor=light-dark(#A5A5A5,#FF8AC5);" vertex="1" parent="1">
          <mxGeometry x="280" y="183" width="30" height="30" as="geometry" />
        </mxCell>
        <mxCell id="PXDZ9CeheyaB0Kq25Mf--3" style="edgeStyle=none;shape=connector;rounded=0;orthogonalLoop=1;jettySize=auto;html=1;exitX=0.938;exitY=0.265;exitDx=0;exitDy=0;entryX=1;entryY=1;entryDx=0;entryDy=0;strokeColor=default;align=center;verticalAlign=middle;fontFamily=Helvetica;fontSize=11;fontColor=default;labelBackgroundColor=default;endArrow=classic;exitPerimeter=0;" edge="1" parent="1" source="m-nLomvfz4ySYYSoCfbE-20" target="m-nLomvfz4ySYYSoCfbE-4">
          <mxGeometry relative="1" as="geometry">
            <mxPoint x="240" y="290" as="sourcePoint" />
            <mxPoint x="279" y="297" as="targetPoint" />
          </mxGeometry>
        </mxCell>
        <mxCell id="PXDZ9CeheyaB0Kq25Mf--4" style="rounded=0;orthogonalLoop=1;jettySize=auto;html=1;exitX=1;exitY=0;exitDx=0;exitDy=0;entryX=0.058;entryY=0.742;entryDx=0;entryDy=0;entryPerimeter=0;" edge="1" parent="1" source="m-nLomvfz4ySYYSoCfbE-20" target="PXDZ9CeheyaB0Kq25Mf--2">
          <mxGeometry relative="1" as="geometry" />
        </mxCell>
        <mxCell id="PXDZ9CeheyaB0Kq25Mf--5" style="rounded=0;orthogonalLoop=1;jettySize=auto;html=1;exitX=1;exitY=0;exitDx=0;exitDy=0;entryX=0.106;entryY=0.827;entryDx=0;entryDy=0;entryPerimeter=0;" edge="1" parent="1" target="m-nLomvfz4ySYYSoCfbE-1">
          <mxGeometry relative="1" as="geometry">
            <mxPoint x="222.5" y="277" as="sourcePoint" />
            <mxPoint x="267.5" y="195" as="targetPoint" />
          </mxGeometry>
        </mxCell>
        <mxCell id="PXDZ9CeheyaB0Kq25Mf--7" style="rounded=0;orthogonalLoop=1;jettySize=auto;html=1;exitX=0.985;exitY=0.335;exitDx=0;exitDy=0;exitPerimeter=0;entryX=-0.01;entryY=0.601;entryDx=0;entryDy=0;entryPerimeter=0;" edge="1" parent="1" source="m-nLomvfz4ySYYSoCfbE-19" target="PXDZ9CeheyaB0Kq25Mf--2">
          <mxGeometry relative="1" as="geometry">
            <mxPoint x="230" y="220" as="sourcePoint" />
            <mxPoint x="269" y="227" as="targetPoint" />
          </mxGeometry>
        </mxCell>
        <mxCell id="PXDZ9CeheyaB0Kq25Mf--8" style="rounded=0;orthogonalLoop=1;jettySize=auto;html=1;exitX=1;exitY=0;exitDx=0;exitDy=0;entryX=-0.007;entryY=0.576;entryDx=0;entryDy=0;entryPerimeter=0;" edge="1" parent="1" source="m-nLomvfz4ySYYSoCfbE-19" target="m-nLomvfz4ySYYSoCfbE-1">
          <mxGeometry relative="1" as="geometry">
            <mxPoint x="220" y="205" as="sourcePoint" />
            <mxPoint x="259" y="183" as="targetPoint" />
          </mxGeometry>
        </mxCell>
        <mxCell id="PXDZ9CeheyaB0Kq25Mf--9" style="edgeStyle=none;shape=connector;rounded=0;orthogonalLoop=1;jettySize=auto;html=1;entryX=0;entryY=0.5;entryDx=0;entryDy=0;strokeColor=default;align=center;verticalAlign=middle;fontFamily=Helvetica;fontSize=11;fontColor=default;labelBackgroundColor=default;endArrow=classic;exitX=1;exitY=0.5;exitDx=0;exitDy=0;" edge="1" parent="1" source="m-nLomvfz4ySYYSoCfbE-18" target="PXDZ9CeheyaB0Kq25Mf--2">
          <mxGeometry relative="1" as="geometry">
            <mxPoint x="260" y="170" as="sourcePoint" />
            <mxPoint x="303" y="150" as="targetPoint" />
          </mxGeometry>
        </mxCell>
        <mxCell id="PXDZ9CeheyaB0Kq25Mf--10" style="edgeStyle=none;shape=connector;rounded=0;orthogonalLoop=1;jettySize=auto;html=1;entryX=0;entryY=1;entryDx=0;entryDy=0;strokeColor=default;align=center;verticalAlign=middle;fontFamily=Helvetica;fontSize=11;fontColor=default;labelBackgroundColor=default;endArrow=classic;exitX=0.931;exitY=0.783;exitDx=0;exitDy=0;exitPerimeter=0;" edge="1" parent="1" source="m-nLomvfz4ySYYSoCfbE-18" target="m-nLomvfz4ySYYSoCfbE-4">
          <mxGeometry relative="1" as="geometry">
            <mxPoint x="230" y="180" as="sourcePoint" />
            <mxPoint x="270" y="184" as="targetPoint" />
          </mxGeometry>
        </mxCell>
        <mxCell id="PXDZ9CeheyaB0Kq25Mf--11" style="edgeStyle=none;shape=connector;rounded=0;orthogonalLoop=1;jettySize=auto;html=1;strokeColor=default;align=center;verticalAlign=middle;fontFamily=Helvetica;fontSize=11;fontColor=default;labelBackgroundColor=default;endArrow=classic;exitX=0.781;exitY=0.932;exitDx=0;exitDy=0;exitPerimeter=0;entryX=0.324;entryY=0.007;entryDx=0;entryDy=0;entryPerimeter=0;" edge="1" parent="1" source="m-nLomvfz4ySYYSoCfbE-18" target="m-nLomvfz4ySYYSoCfbE-5">
          <mxGeometry relative="1" as="geometry">
            <mxPoint x="230" y="190" as="sourcePoint" />
            <mxPoint x="260" y="250" as="targetPoint" />
          </mxGeometry>
        </mxCell>
        <mxCell id="PXDZ9CeheyaB0Kq25Mf--12" value="&lt;font style=&quot;font-size: 22px;&quot;&gt;$$\dots$$&lt;/font&gt;" style="text;html=1;align=center;verticalAlign=middle;whiteSpace=wrap;rounded=0;rotation=0;fillColor=none;" vertex="1" parent="1">
          <mxGeometry x="320" y="288.5" width="45" height="3" as="geometry" />
        </mxCell>
        <mxCell id="PXDZ9CeheyaB0Kq25Mf--35" value="" style="ellipse;whiteSpace=wrap;html=1;aspect=fixed;strokeColor=default;align=center;verticalAlign=middle;fontFamily=Helvetica;fontSize=12;fontColor=default;fillColor=light-dark(#A5A5A5,#FF8AC5);" vertex="1" parent="1">
          <mxGeometry x="384.5" y="143" width="30" height="30" as="geometry" />
        </mxCell>
        <mxCell id="PXDZ9CeheyaB0Kq25Mf--47" style="rounded=0;orthogonalLoop=1;jettySize=auto;html=1;exitX=0;exitY=0;exitDx=0;exitDy=0;entryX=-0.007;entryY=0.527;entryDx=0;entryDy=0;entryPerimeter=0;" edge="1" parent="1" source="PXDZ9CeheyaB0Kq25Mf--36" target="PXDZ9CeheyaB0Kq25Mf--40">
          <mxGeometry relative="1" as="geometry" />
        </mxCell>
        <mxCell id="PXDZ9CeheyaB0Kq25Mf--36" value="" style="ellipse;whiteSpace=wrap;html=1;aspect=fixed;strokeColor=default;align=center;verticalAlign=middle;fontFamily=Helvetica;fontSize=12;fontColor=default;fillColor=light-dark(#A5A5A5,#FF8AC5);direction=south;" vertex="1" parent="1">
          <mxGeometry x="384.5" y="223" width="30" height="30" as="geometry" />
        </mxCell>
        <mxCell id="PXDZ9CeheyaB0Kq25Mf--37" value="" style="ellipse;whiteSpace=wrap;html=1;aspect=fixed;strokeColor=default;align=center;verticalAlign=middle;fontFamily=Helvetica;fontSize=12;fontColor=default;fillColor=light-dark(#A5A5A5,#FF8AC5);" vertex="1" parent="1">
          <mxGeometry x="384.5" y="294" width="30" height="30" as="geometry" />
        </mxCell>
        <mxCell id="PXDZ9CeheyaB0Kq25Mf--38" value="&lt;font style=&quot;font-size: 22px;&quot;&gt;$$\dots$$&lt;/font&gt;" style="text;html=1;align=center;verticalAlign=middle;whiteSpace=wrap;rounded=0;rotation=90;fillColor=none;" vertex="1" parent="1">
          <mxGeometry x="382" y="264" width="45" height="20" as="geometry" />
        </mxCell>
        <mxCell id="PXDZ9CeheyaB0Kq25Mf--39" value="" style="ellipse;whiteSpace=wrap;html=1;aspect=fixed;fillColor=light-dark(#A5A5A5,#FF8AC5);" vertex="1" parent="1">
          <mxGeometry x="384.5" y="183" width="30" height="30" as="geometry" />
        </mxCell>
        <mxCell id="PXDZ9CeheyaB0Kq25Mf--82" style="edgeStyle=none;shape=connector;rounded=0;orthogonalLoop=1;jettySize=auto;html=1;exitX=1;exitY=0.5;exitDx=0;exitDy=0;strokeColor=default;align=center;verticalAlign=middle;fontFamily=Helvetica;fontSize=11;fontColor=default;labelBackgroundColor=default;endArrow=classic;" edge="1" parent="1" source="PXDZ9CeheyaB0Kq25Mf--40">
          <mxGeometry relative="1" as="geometry">
            <mxPoint x="520" y="179.93650793650795" as="targetPoint" />
          </mxGeometry>
        </mxCell>
        <mxCell id="PXDZ9CeheyaB0Kq25Mf--40" value="" style="ellipse;whiteSpace=wrap;html=1;aspect=fixed;fillColor=#F70146;" vertex="1" parent="1">
          <mxGeometry x="467" y="165" width="30" height="30" as="geometry" />
        </mxCell>
        <mxCell id="PXDZ9CeheyaB0Kq25Mf--81" style="edgeStyle=none;shape=connector;rounded=0;orthogonalLoop=1;jettySize=auto;html=1;exitX=1;exitY=0.5;exitDx=0;exitDy=0;strokeColor=default;align=center;verticalAlign=middle;fontFamily=Helvetica;fontSize=11;fontColor=default;labelBackgroundColor=default;endArrow=classic;" edge="1" parent="1" source="PXDZ9CeheyaB0Kq25Mf--41">
          <mxGeometry relative="1" as="geometry">
            <mxPoint x="520" y="219.93650793650795" as="targetPoint" />
          </mxGeometry>
        </mxCell>
        <mxCell id="PXDZ9CeheyaB0Kq25Mf--41" value="" style="ellipse;whiteSpace=wrap;html=1;aspect=fixed;strokeColor=default;align=center;verticalAlign=middle;fontFamily=Helvetica;fontSize=12;fontColor=default;fillColor=#F70146;" vertex="1" parent="1">
          <mxGeometry x="467" y="205" width="30" height="30" as="geometry" />
        </mxCell>
        <mxCell id="PXDZ9CeheyaB0Kq25Mf--80" style="edgeStyle=none;shape=connector;rounded=0;orthogonalLoop=1;jettySize=auto;html=1;exitX=1;exitY=0.5;exitDx=0;exitDy=0;strokeColor=default;align=center;verticalAlign=middle;fontFamily=Helvetica;fontSize=11;fontColor=default;labelBackgroundColor=default;endArrow=classic;" edge="1" parent="1" source="PXDZ9CeheyaB0Kq25Mf--42">
          <mxGeometry relative="1" as="geometry">
            <mxPoint x="520" y="289.93650793650795" as="targetPoint" />
          </mxGeometry>
        </mxCell>
        <mxCell id="PXDZ9CeheyaB0Kq25Mf--42" value="" style="ellipse;whiteSpace=wrap;html=1;aspect=fixed;strokeColor=default;align=center;verticalAlign=middle;fontFamily=Helvetica;fontSize=12;fontColor=default;fillColor=#F70146;" vertex="1" parent="1">
          <mxGeometry x="467" y="275" width="30" height="30" as="geometry" />
        </mxCell>
        <mxCell id="PXDZ9CeheyaB0Kq25Mf--43" value="&lt;font style=&quot;font-size: 22px;&quot;&gt;$$\dots$$&lt;/font&gt;" style="text;html=1;align=center;verticalAlign=middle;whiteSpace=wrap;rounded=0;rotation=90;" vertex="1" parent="1">
          <mxGeometry x="464.5" y="245" width="45" height="20" as="geometry" />
        </mxCell>
        <mxCell id="PXDZ9CeheyaB0Kq25Mf--44" value="$$\text{Output}$$" style="text;html=1;align=center;verticalAlign=middle;whiteSpace=wrap;rounded=0;" vertex="1" parent="1">
          <mxGeometry x="449.5" y="120" width="60" height="30" as="geometry" />
        </mxCell>
        <mxCell id="PXDZ9CeheyaB0Kq25Mf--45" style="rounded=0;orthogonalLoop=1;jettySize=auto;html=1;exitX=1.006;exitY=0.56;exitDx=0;exitDy=0;entryX=0.182;entryY=0.096;entryDx=0;entryDy=0;entryPerimeter=0;exitPerimeter=0;" edge="1" parent="1" source="PXDZ9CeheyaB0Kq25Mf--35" target="PXDZ9CeheyaB0Kq25Mf--40">
          <mxGeometry relative="1" as="geometry" />
        </mxCell>
        <mxCell id="PXDZ9CeheyaB0Kq25Mf--46" style="rounded=0;orthogonalLoop=1;jettySize=auto;html=1;exitX=0.975;exitY=0.297;exitDx=0;exitDy=0;entryX=0.029;entryY=0.298;entryDx=0;entryDy=0;entryPerimeter=0;exitPerimeter=0;" edge="1" parent="1" source="PXDZ9CeheyaB0Kq25Mf--39" target="PXDZ9CeheyaB0Kq25Mf--40">
          <mxGeometry relative="1" as="geometry" />
        </mxCell>
        <mxCell id="PXDZ9CeheyaB0Kq25Mf--48" style="rounded=0;orthogonalLoop=1;jettySize=auto;html=1;exitX=0.98;exitY=0.423;exitDx=0;exitDy=0;entryX=0.06;entryY=0.759;entryDx=0;entryDy=0;entryPerimeter=0;exitPerimeter=0;" edge="1" parent="1" source="PXDZ9CeheyaB0Kq25Mf--38" target="PXDZ9CeheyaB0Kq25Mf--40">
          <mxGeometry relative="1" as="geometry" />
        </mxCell>
        <mxCell id="PXDZ9CeheyaB0Kq25Mf--49" style="rounded=0;orthogonalLoop=1;jettySize=auto;html=1;exitX=0.925;exitY=0.775;exitDx=0;exitDy=0;entryX=0.234;entryY=0.071;entryDx=0;entryDy=0;entryPerimeter=0;exitPerimeter=0;" edge="1" parent="1" source="PXDZ9CeheyaB0Kq25Mf--35" target="PXDZ9CeheyaB0Kq25Mf--41">
          <mxGeometry relative="1" as="geometry" />
        </mxCell>
        <mxCell id="PXDZ9CeheyaB0Kq25Mf--50" style="edgeStyle=none;shape=connector;rounded=0;orthogonalLoop=1;jettySize=auto;html=1;exitX=0.995;exitY=0.61;exitDx=0;exitDy=0;entryX=0.029;entryY=0.268;entryDx=0;entryDy=0;entryPerimeter=0;strokeColor=default;align=center;verticalAlign=middle;fontFamily=Helvetica;fontSize=11;fontColor=default;labelBackgroundColor=default;endArrow=classic;exitPerimeter=0;" edge="1" parent="1" source="PXDZ9CeheyaB0Kq25Mf--39" target="PXDZ9CeheyaB0Kq25Mf--41">
          <mxGeometry relative="1" as="geometry" />
        </mxCell>
        <mxCell id="PXDZ9CeheyaB0Kq25Mf--51" style="edgeStyle=none;shape=connector;rounded=0;orthogonalLoop=1;jettySize=auto;html=1;exitX=0.357;exitY=0.009;exitDx=0;exitDy=0;entryX=-0.008;entryY=0.441;entryDx=0;entryDy=0;entryPerimeter=0;strokeColor=default;align=center;verticalAlign=middle;fontFamily=Helvetica;fontSize=11;fontColor=default;labelBackgroundColor=default;endArrow=classic;exitPerimeter=0;" edge="1" parent="1" source="PXDZ9CeheyaB0Kq25Mf--36" target="PXDZ9CeheyaB0Kq25Mf--41">
          <mxGeometry relative="1" as="geometry" />
        </mxCell>
        <mxCell id="PXDZ9CeheyaB0Kq25Mf--52" style="edgeStyle=none;shape=connector;rounded=0;orthogonalLoop=1;jettySize=auto;html=1;exitX=1;exitY=0;exitDx=0;exitDy=0;entryX=0.007;entryY=0.682;entryDx=0;entryDy=0;entryPerimeter=0;strokeColor=default;align=center;verticalAlign=middle;fontFamily=Helvetica;fontSize=11;fontColor=default;labelBackgroundColor=default;endArrow=classic;" edge="1" parent="1" source="PXDZ9CeheyaB0Kq25Mf--37" target="PXDZ9CeheyaB0Kq25Mf--41">
          <mxGeometry relative="1" as="geometry" />
        </mxCell>
        <mxCell id="PXDZ9CeheyaB0Kq25Mf--53" style="edgeStyle=none;shape=connector;rounded=0;orthogonalLoop=1;jettySize=auto;html=1;exitX=0.987;exitY=0.36;exitDx=0;exitDy=0;entryX=0.021;entryY=0.664;entryDx=0;entryDy=0;entryPerimeter=0;strokeColor=default;align=center;verticalAlign=middle;fontFamily=Helvetica;fontSize=11;fontColor=default;labelBackgroundColor=default;endArrow=classic;exitPerimeter=0;" edge="1" parent="1" source="PXDZ9CeheyaB0Kq25Mf--37" target="PXDZ9CeheyaB0Kq25Mf--42">
          <mxGeometry relative="1" as="geometry" />
        </mxCell>
        <mxCell id="PXDZ9CeheyaB0Kq25Mf--54" style="edgeStyle=none;shape=connector;rounded=0;orthogonalLoop=1;jettySize=auto;html=1;exitX=0.771;exitY=0.082;exitDx=0;exitDy=0;entryX=-0.004;entryY=0.47;entryDx=0;entryDy=0;entryPerimeter=0;strokeColor=default;align=center;verticalAlign=middle;fontFamily=Helvetica;fontSize=11;fontColor=default;labelBackgroundColor=default;endArrow=classic;exitPerimeter=0;" edge="1" parent="1" source="PXDZ9CeheyaB0Kq25Mf--36" target="PXDZ9CeheyaB0Kq25Mf--42">
          <mxGeometry relative="1" as="geometry" />
        </mxCell>
        <mxCell id="PXDZ9CeheyaB0Kq25Mf--55" style="edgeStyle=none;shape=connector;rounded=0;orthogonalLoop=1;jettySize=auto;html=1;exitX=1;exitY=1;exitDx=0;exitDy=0;entryX=0.073;entryY=0.206;entryDx=0;entryDy=0;entryPerimeter=0;strokeColor=default;align=center;verticalAlign=middle;fontFamily=Helvetica;fontSize=11;fontColor=default;labelBackgroundColor=default;endArrow=classic;" edge="1" parent="1" source="PXDZ9CeheyaB0Kq25Mf--39" target="PXDZ9CeheyaB0Kq25Mf--42">
          <mxGeometry relative="1" as="geometry" />
        </mxCell>
        <mxCell id="PXDZ9CeheyaB0Kq25Mf--56" style="edgeStyle=none;shape=connector;rounded=0;orthogonalLoop=1;jettySize=auto;html=1;exitX=0.764;exitY=0.925;exitDx=0;exitDy=0;entryX=0.285;entryY=0.005;entryDx=0;entryDy=0;entryPerimeter=0;strokeColor=default;align=center;verticalAlign=middle;fontFamily=Helvetica;fontSize=11;fontColor=default;labelBackgroundColor=default;endArrow=classic;exitPerimeter=0;" edge="1" parent="1" source="PXDZ9CeheyaB0Kq25Mf--35" target="PXDZ9CeheyaB0Kq25Mf--42">
          <mxGeometry relative="1" as="geometry" />
        </mxCell>
        <mxCell id="PXDZ9CeheyaB0Kq25Mf--58" style="edgeStyle=none;shape=connector;rounded=0;orthogonalLoop=1;jettySize=auto;html=1;exitX=0.957;exitY=0.7;exitDx=0;exitDy=0;entryX=0.074;entryY=0.235;entryDx=0;entryDy=0;entryPerimeter=0;strokeColor=default;align=center;verticalAlign=middle;fontFamily=Helvetica;fontSize=11;fontColor=default;labelBackgroundColor=default;endArrow=classic;exitPerimeter=0;" edge="1" parent="1" source="m-nLomvfz4ySYYSoCfbE-1" target="PXDZ9CeheyaB0Kq25Mf--39">
          <mxGeometry relative="1" as="geometry" />
        </mxCell>
        <mxCell id="PXDZ9CeheyaB0Kq25Mf--59" style="edgeStyle=none;shape=connector;rounded=0;orthogonalLoop=1;jettySize=auto;html=1;exitX=0.932;exitY=0.236;exitDx=0;exitDy=0;strokeColor=default;align=center;verticalAlign=middle;fontFamily=Helvetica;fontSize=11;fontColor=default;labelBackgroundColor=default;endArrow=classic;entryX=0;entryY=0.5;entryDx=0;entryDy=0;exitPerimeter=0;" edge="1" parent="1" source="PXDZ9CeheyaB0Kq25Mf--2" target="PXDZ9CeheyaB0Kq25Mf--35">
          <mxGeometry relative="1" as="geometry">
            <mxPoint x="360" y="160" as="targetPoint" />
          </mxGeometry>
        </mxCell>
        <mxCell id="PXDZ9CeheyaB0Kq25Mf--64" style="edgeStyle=none;shape=connector;rounded=0;orthogonalLoop=1;jettySize=auto;html=1;exitX=1;exitY=0;exitDx=0;exitDy=0;entryX=0.798;entryY=0.899;entryDx=0;entryDy=0;entryPerimeter=0;strokeColor=default;align=center;verticalAlign=middle;fontFamily=Helvetica;fontSize=11;fontColor=default;labelBackgroundColor=default;endArrow=classic;" edge="1" parent="1" source="m-nLomvfz4ySYYSoCfbE-5" target="PXDZ9CeheyaB0Kq25Mf--36">
          <mxGeometry relative="1" as="geometry" />
        </mxCell>
        <mxCell id="PXDZ9CeheyaB0Kq25Mf--69" style="edgeStyle=none;shape=connector;rounded=0;orthogonalLoop=1;jettySize=auto;html=1;exitX=1;exitY=1;exitDx=0;exitDy=0;entryX=0;entryY=0;entryDx=0;entryDy=0;strokeColor=default;align=center;verticalAlign=middle;fontFamily=Helvetica;fontSize=11;fontColor=default;labelBackgroundColor=default;endArrow=classic;" edge="1" parent="1" source="PXDZ9CeheyaB0Kq25Mf--2" target="PXDZ9CeheyaB0Kq25Mf--37">
          <mxGeometry relative="1" as="geometry" />
        </mxCell>
        <mxCell id="PXDZ9CeheyaB0Kq25Mf--70" style="edgeStyle=none;shape=connector;rounded=0;orthogonalLoop=1;jettySize=auto;html=1;exitX=0;exitY=0;exitDx=0;exitDy=0;entryX=0.272;entryY=0.97;entryDx=0;entryDy=0;entryPerimeter=0;strokeColor=default;align=center;verticalAlign=middle;fontFamily=Helvetica;fontSize=11;fontColor=default;labelBackgroundColor=default;endArrow=classic;" edge="1" parent="1" source="m-nLomvfz4ySYYSoCfbE-4" target="PXDZ9CeheyaB0Kq25Mf--35">
          <mxGeometry relative="1" as="geometry" />
        </mxCell>
        <mxCell id="PXDZ9CeheyaB0Kq25Mf--72" style="edgeStyle=none;shape=connector;rounded=0;orthogonalLoop=1;jettySize=auto;html=1;exitX=0.951;exitY=0.713;exitDx=0;exitDy=0;entryX=0.352;entryY=0.985;entryDx=0;entryDy=0;entryPerimeter=0;strokeColor=default;align=center;verticalAlign=middle;fontFamily=Helvetica;fontSize=11;fontColor=default;labelBackgroundColor=default;endArrow=classic;exitPerimeter=0;" edge="1" parent="1" source="PXDZ9CeheyaB0Kq25Mf--2" target="PXDZ9CeheyaB0Kq25Mf--36">
          <mxGeometry relative="1" as="geometry" />
        </mxCell>
        <mxCell id="PXDZ9CeheyaB0Kq25Mf--74" style="edgeStyle=none;shape=connector;rounded=0;orthogonalLoop=1;jettySize=auto;html=1;exitX=0.961;exitY=0.541;exitDx=0;exitDy=0;entryX=0.033;entryY=0.682;entryDx=0;entryDy=0;entryPerimeter=0;strokeColor=default;align=center;verticalAlign=middle;fontFamily=Helvetica;fontSize=11;fontColor=default;labelBackgroundColor=default;endArrow=classic;exitPerimeter=0;" edge="1" parent="1" source="m-nLomvfz4ySYYSoCfbE-6" target="PXDZ9CeheyaB0Kq25Mf--35">
          <mxGeometry relative="1" as="geometry" />
        </mxCell>
        <mxCell id="PXDZ9CeheyaB0Kq25Mf--76" value="$$\text{Hidden Layers}$$" style="text;html=1;align=center;verticalAlign=middle;whiteSpace=wrap;rounded=0;" vertex="1" parent="1">
          <mxGeometry x="310" y="105" width="60" height="30" as="geometry" />
        </mxCell>
      </root>
    </mxGraphModel>
  </diagram>
</mxfile>
